<svg width="1851" height="513" viewBox="0 0 1851 513" fill="none" xmlns="http://www.w3.org/2000/svg">
<path d="M99.5366 209.766V184.411H218.997V209.766H174.466V329.865H144.068V209.766H99.5366ZM317.576 226.243C317.008 220.514 314.57 216.063 310.261 212.891C305.952 209.718 300.105 208.132 292.718 208.132C287.699 208.132 283.462 208.843 280.005 210.263C276.549 211.636 273.897 213.554 272.051 216.016C270.252 218.478 269.352 221.271 269.352 224.396C269.257 227.001 269.802 229.273 270.985 231.215C272.217 233.156 273.897 234.837 276.028 236.257C278.159 237.63 280.621 238.838 283.414 239.879C286.208 240.874 289.191 241.726 292.363 242.436L305.431 245.561C311.776 246.982 317.6 248.876 322.903 251.243C328.206 253.61 332.799 256.522 336.681 259.979C340.564 263.435 343.571 267.507 345.701 272.195C347.879 276.882 348.992 282.256 349.039 288.317C348.992 297.218 346.719 304.936 342.221 311.47C337.771 317.957 331.331 323 322.903 326.598C314.522 330.149 304.413 331.925 292.576 331.925C280.834 331.925 270.607 330.126 261.895 326.527C253.23 322.929 246.459 317.602 241.582 310.547C236.753 303.445 234.219 294.662 233.983 284.198H263.741C264.073 289.075 265.469 293.146 267.931 296.414C270.441 299.633 273.779 302.072 277.946 303.729C282.16 305.339 286.918 306.144 292.221 306.144C297.43 306.144 301.951 305.386 305.787 303.871C309.669 302.356 312.676 300.249 314.806 297.55C316.937 294.851 318.003 291.75 318.003 288.246C318.003 284.979 317.032 282.233 315.091 280.007C313.197 277.782 310.403 275.888 306.71 274.325C303.064 272.763 298.59 271.343 293.287 270.064L277.449 266.087C265.185 263.104 255.503 258.44 248.4 252.095C241.298 245.751 237.771 237.204 237.818 226.456C237.771 217.649 240.114 209.955 244.849 203.374C249.631 196.792 256.189 191.655 264.522 187.962C272.856 184.269 282.325 182.422 292.931 182.422C303.727 182.422 313.149 184.269 321.199 187.962C329.295 191.655 335.592 196.792 340.091 203.374C344.589 209.955 346.909 217.578 347.051 226.243H317.576ZM413.031 200.036V184.411H522.122V200.036H476.383V329.865H458.77V200.036H413.031ZM545.329 370.774C542.488 370.774 539.954 370.538 537.729 370.064C535.504 369.638 533.965 369.212 533.113 368.786L537.374 354.013C541.446 355.055 545.044 355.433 548.169 355.149C551.294 354.865 554.064 353.468 556.479 350.959C558.941 348.497 561.19 344.496 563.226 338.956L566.351 330.433L526.01 220.774H544.192L574.306 307.706H575.442L605.556 220.774H623.738L577.431 345.774C575.347 351.409 572.767 356.073 569.689 359.766C566.612 363.506 563.037 366.276 558.965 368.075C554.94 369.875 550.395 370.774 545.329 370.774ZM645.861 370.774V220.774H662.054V238.104H664.043C665.274 236.21 666.979 233.795 669.157 230.86C671.382 227.877 674.554 225.225 678.674 222.905C682.84 220.538 688.475 219.354 695.577 219.354C704.763 219.354 712.859 221.65 719.867 226.243C726.874 230.836 732.343 237.346 736.273 245.774C740.203 254.202 742.168 264.146 742.168 275.604C742.168 287.157 740.203 297.171 736.273 305.646C732.343 314.075 726.898 320.609 719.938 325.249C712.978 329.842 704.952 332.138 695.861 332.138C688.854 332.138 683.243 330.978 679.029 328.658C674.815 326.29 671.571 323.615 669.299 320.632C667.026 317.602 665.274 315.093 664.043 313.104H662.623V370.774H645.861ZM662.338 275.32C662.338 283.558 663.546 290.826 665.961 297.124C668.375 303.374 671.903 308.274 676.543 311.825C681.183 315.329 686.865 317.081 693.588 317.081C700.596 317.081 706.444 315.235 711.131 311.541C715.866 307.801 719.417 302.782 721.784 296.485C724.199 290.14 725.407 283.085 725.407 275.32C725.407 267.649 724.223 260.736 721.855 254.581C719.535 248.378 716.008 243.478 711.273 239.879C706.586 236.234 700.691 234.411 693.588 234.411C686.77 234.411 681.041 236.139 676.401 239.595C671.761 243.004 668.257 247.787 665.89 253.942C663.522 260.05 662.338 267.176 662.338 275.32ZM813.475 332.138C802.963 332.138 793.896 329.818 786.273 325.178C778.697 320.49 772.85 313.956 768.73 305.575C764.659 297.147 762.623 287.346 762.623 276.172C762.623 264.998 764.659 255.149 768.73 246.627C772.85 238.057 778.579 231.38 785.918 226.598C793.304 221.769 801.922 219.354 811.77 219.354C817.452 219.354 823.063 220.301 828.603 222.195C834.142 224.089 839.185 227.166 843.73 231.428C848.276 235.642 851.898 241.229 854.597 248.189C857.296 255.149 858.645 263.719 858.645 273.899V281.002H774.554V266.513H841.6C841.6 260.358 840.369 254.865 837.907 250.036C835.492 245.206 832.035 241.395 827.537 238.601C823.087 235.807 817.831 234.411 811.77 234.411C805.094 234.411 799.318 236.068 794.441 239.382C789.611 242.649 785.894 246.911 783.29 252.166C780.686 257.422 779.384 263.057 779.384 269.07V278.729C779.384 286.968 780.804 293.951 783.645 299.681C786.534 305.362 790.534 309.695 795.648 312.678C800.762 315.613 806.704 317.081 813.475 317.081C817.878 317.081 821.855 316.466 825.407 315.235C829.005 313.956 832.106 312.062 834.711 309.553C837.315 306.996 839.327 303.824 840.748 300.036L856.941 304.581C855.236 310.074 852.372 314.903 848.347 319.07C844.322 323.189 839.351 326.409 833.432 328.729C827.514 331.002 820.861 332.138 813.475 332.138ZM965.961 220.774C965.108 213.577 961.652 207.99 955.591 204.013C949.531 200.036 942.097 198.047 933.29 198.047C926.851 198.047 921.216 199.089 916.387 201.172C911.605 203.255 907.864 206.12 905.165 209.766C902.514 213.412 901.188 217.555 901.188 222.195C901.188 226.077 902.111 229.415 903.958 232.209C905.852 234.955 908.266 237.252 911.202 239.098C914.138 240.897 917.215 242.389 920.435 243.573C923.655 244.709 926.614 245.632 929.313 246.343L944.086 250.32C947.873 251.314 952.088 252.687 956.728 254.439C961.415 256.191 965.89 258.582 970.151 261.612C974.46 264.595 978.011 268.431 980.804 273.118C983.598 277.806 984.995 283.558 984.995 290.377C984.995 298.236 982.935 305.339 978.816 311.683C974.744 318.028 968.778 323.071 960.918 326.811C953.105 330.552 943.612 332.422 932.438 332.422C922.021 332.422 913.001 330.741 905.378 327.379C897.802 324.018 891.837 319.33 887.48 313.317C883.172 307.304 880.733 300.32 880.165 292.365H898.347C898.82 297.858 900.667 302.403 903.887 306.002C907.154 309.553 911.273 312.204 916.245 313.956C921.264 315.661 926.661 316.513 932.438 316.513C939.161 316.513 945.198 315.424 950.549 313.246C955.899 311.021 960.137 307.943 963.262 304.013C966.387 300.036 967.949 295.396 967.949 290.093C967.949 285.263 966.6 281.333 963.901 278.303C961.202 275.272 957.651 272.81 953.248 270.916C948.844 269.022 944.086 267.365 938.972 265.945L921.074 260.831C909.711 257.564 900.714 252.9 894.086 246.84C887.457 240.779 884.142 232.848 884.142 223.047C884.142 214.903 886.344 207.801 890.748 201.74C895.198 195.632 901.164 190.897 908.645 187.536C916.174 184.127 924.578 182.422 933.858 182.422C943.233 182.422 951.567 184.103 958.858 187.465C966.15 190.779 971.927 195.325 976.188 201.101C980.497 206.878 982.769 213.435 983.006 220.774H965.961ZM1056 332.138C1045.77 332.138 1036.97 329.723 1029.58 324.894C1022.19 320.064 1016.51 313.412 1012.53 304.936C1008.56 296.461 1006.57 286.778 1006.57 275.888C1006.57 264.808 1008.6 255.031 1012.68 246.556C1016.8 238.033 1022.52 231.38 1029.86 226.598C1037.25 221.769 1045.87 219.354 1055.72 219.354C1063.39 219.354 1070.3 220.774 1076.45 223.615C1082.61 226.456 1087.65 230.433 1091.58 235.547C1095.51 240.661 1097.95 246.627 1098.9 253.445H1082.14C1080.86 248.473 1078.02 244.07 1073.61 240.235C1069.26 236.352 1063.39 234.411 1056 234.411C1049.47 234.411 1043.74 236.115 1038.81 239.524C1033.94 242.886 1030.12 247.645 1027.38 253.8C1024.68 259.908 1023.33 267.081 1023.33 275.32C1023.33 283.748 1024.65 291.087 1027.31 297.337C1030.01 303.587 1033.79 308.44 1038.67 311.896C1043.59 315.353 1049.37 317.081 1056 317.081C1060.36 317.081 1064.31 316.324 1067.86 314.808C1071.41 313.293 1074.42 311.115 1076.88 308.274C1079.34 305.433 1081.09 302.024 1082.14 298.047H1098.9C1097.95 304.486 1095.61 310.287 1091.87 315.448C1088.17 320.561 1083.27 324.633 1077.16 327.664C1071.1 330.646 1064.05 332.138 1056 332.138ZM1123.4 329.865V220.774H1139.59V237.252H1140.73C1142.72 231.854 1146.32 227.474 1151.53 224.112C1156.73 220.751 1162.6 219.07 1169.14 219.07C1170.37 219.07 1171.91 219.093 1173.76 219.141C1175.6 219.188 1177 219.259 1177.95 219.354V236.399C1177.38 236.257 1176.08 236.044 1174.04 235.76C1172.05 235.429 1169.94 235.263 1167.72 235.263C1162.42 235.263 1157.68 236.376 1153.51 238.601C1149.39 240.779 1146.13 243.809 1143.71 247.692C1141.35 251.527 1140.16 255.907 1140.16 260.831V329.865H1123.4ZM1197.81 329.865V220.774H1214.58V329.865H1197.81ZM1206.34 202.593C1203.07 202.593 1200.25 201.48 1197.89 199.254C1195.57 197.029 1194.41 194.354 1194.41 191.229C1194.41 188.104 1195.57 185.429 1197.89 183.203C1200.25 180.978 1203.07 179.865 1206.34 179.865C1209.6 179.865 1212.4 180.978 1214.72 183.203C1217.09 185.429 1218.27 188.104 1218.27 191.229C1218.27 194.354 1217.09 197.029 1214.72 199.254C1212.4 201.48 1209.6 202.593 1206.34 202.593ZM1245.28 370.774V220.774H1261.47V238.104H1263.46C1264.69 236.21 1266.39 233.795 1268.57 230.86C1270.8 227.877 1273.97 225.225 1278.09 222.905C1282.25 220.538 1287.89 219.354 1294.99 219.354C1304.18 219.354 1312.27 221.65 1319.28 226.243C1326.29 230.836 1331.76 237.346 1335.69 245.774C1339.62 254.202 1341.58 264.146 1341.58 275.604C1341.58 287.157 1339.62 297.171 1335.69 305.646C1331.76 314.075 1326.31 320.609 1319.35 325.249C1312.39 329.842 1304.37 332.138 1295.28 332.138C1288.27 332.138 1282.66 330.978 1278.44 328.658C1274.23 326.29 1270.99 323.615 1268.71 320.632C1266.44 317.602 1264.69 315.093 1263.46 313.104H1262.04V370.774H1245.28ZM1261.75 275.32C1261.75 283.558 1262.96 290.826 1265.37 297.124C1267.79 303.374 1271.32 308.274 1275.96 311.825C1280.6 315.329 1286.28 317.081 1293 317.081C1300.01 317.081 1305.86 315.235 1310.55 311.541C1315.28 307.801 1318.83 302.782 1321.2 296.485C1323.61 290.14 1324.82 283.085 1324.82 275.32C1324.82 267.649 1323.64 260.736 1321.27 254.581C1318.95 248.378 1315.42 243.478 1310.69 239.879C1306 236.234 1300.1 234.411 1293 234.411C1286.18 234.411 1280.46 236.139 1275.82 239.595C1271.17 243.004 1267.67 247.787 1265.3 253.942C1262.94 260.05 1261.75 267.176 1261.75 275.32ZM1414.59 220.774V234.979H1358.06V220.774H1414.59ZM1374.54 194.638H1391.3V298.615C1391.3 303.35 1391.98 306.901 1393.36 309.269C1394.78 311.589 1396.58 313.151 1398.76 313.956C1400.98 314.714 1403.32 315.093 1405.79 315.093C1407.63 315.093 1409.15 314.998 1410.33 314.808C1411.52 314.572 1412.46 314.382 1413.17 314.24L1416.58 329.297C1415.45 329.723 1413.86 330.149 1411.82 330.575C1409.79 331.049 1407.21 331.286 1404.08 331.286C1399.35 331.286 1394.71 330.268 1390.16 328.232C1385.66 326.196 1381.92 323.094 1378.94 318.928C1376 314.761 1374.54 309.505 1374.54 303.161V194.638Z" fill="white"/>
</svg>
