<svg width="1851" height="513" viewBox="0 0 1851 513" fill="none" xmlns="http://www.w3.org/2000/svg">
<path d="M177.241 184.145H207.638V285.566C207.638 294.941 205.531 303.084 201.317 309.997C197.151 316.91 191.35 322.237 183.917 325.977C176.483 329.718 167.842 331.588 157.993 331.588C149.234 331.588 141.279 330.049 134.13 326.972C127.027 323.847 121.393 319.112 117.226 312.767C113.06 306.375 111 298.35 111.047 288.691H141.658C141.753 292.526 142.534 295.816 144.002 298.563C145.517 301.262 147.577 303.345 150.181 304.813C152.832 306.233 155.957 306.943 159.556 306.943C163.344 306.943 166.54 306.138 169.144 304.529C171.795 302.871 173.808 300.457 175.181 297.284C176.554 294.112 177.241 290.206 177.241 285.566V184.145ZM311.971 225.977C311.402 220.248 308.964 215.798 304.655 212.625C300.347 209.453 294.499 207.867 287.113 207.867C282.094 207.867 277.856 208.577 274.4 209.997C270.943 211.37 268.292 213.288 266.445 215.75C264.646 218.212 263.746 221.006 263.746 224.131C263.652 226.735 264.196 229.008 265.38 230.949C266.611 232.89 268.292 234.571 270.422 235.992C272.553 237.365 275.015 238.572 277.809 239.614C280.602 240.608 283.585 241.46 286.758 242.171L299.826 245.296C306.17 246.716 311.994 248.61 317.297 250.977C322.6 253.345 327.193 256.257 331.076 259.713C334.958 263.17 337.965 267.242 340.096 271.929C342.274 276.617 343.386 281.991 343.434 288.051C343.386 296.953 341.114 304.671 336.616 311.205C332.165 317.691 325.725 322.734 317.297 326.333C308.917 329.884 298.808 331.659 286.971 331.659C275.228 331.659 265.001 329.86 256.289 326.262C247.624 322.663 240.853 317.336 235.976 310.281C231.147 303.179 228.614 294.396 228.377 283.932H258.135C258.467 288.809 259.864 292.881 262.326 296.148C264.835 299.368 268.173 301.806 272.34 303.463C276.554 305.073 281.313 305.878 286.616 305.878C291.824 305.878 296.346 305.12 300.181 303.605C304.063 302.09 307.07 299.983 309.201 297.284C311.331 294.585 312.397 291.484 312.397 287.98C312.397 284.713 311.426 281.967 309.485 279.742C307.591 277.516 304.797 275.622 301.104 274.06C297.458 272.497 292.984 271.077 287.681 269.798L271.843 265.821C259.58 262.838 249.897 258.174 242.795 251.83C235.692 245.485 232.165 236.939 232.212 226.191C232.165 217.384 234.509 209.69 239.243 203.108C244.026 196.527 250.583 191.389 258.917 187.696C267.25 184.003 276.72 182.156 287.326 182.156C298.121 182.156 307.544 184.003 315.593 187.696C323.689 191.389 329.987 196.527 334.485 203.108C338.983 209.69 341.303 217.313 341.445 225.977H311.971ZM471.062 184.145H488.675V288.122C488.675 297.403 486.971 305.286 483.562 311.773C480.152 318.26 475.347 323.184 469.144 326.546C462.941 329.907 455.626 331.588 447.198 331.588C439.243 331.588 432.165 330.144 425.962 327.256C419.759 324.32 414.883 320.154 411.331 314.756C407.78 309.358 406.005 302.942 406.005 295.509H423.334C423.334 299.628 424.352 303.227 426.388 306.304C428.472 309.334 431.313 311.702 434.911 313.406C438.509 315.111 442.605 315.963 447.198 315.963C452.264 315.963 456.573 314.898 460.124 312.767C463.675 310.637 466.374 307.512 468.221 303.392C470.115 299.226 471.062 294.136 471.062 288.122V184.145ZM553.803 332.156C546.89 332.156 540.616 330.854 534.982 328.25C529.348 325.599 524.873 321.787 521.559 316.816C518.244 311.797 516.587 305.736 516.587 298.634C516.587 292.384 517.818 287.317 520.28 283.435C522.742 279.505 526.033 276.427 530.152 274.202C534.272 271.976 538.817 270.319 543.789 269.23C548.808 268.094 553.85 267.194 558.917 266.531C565.545 265.679 570.92 265.04 575.039 264.614C579.206 264.14 582.236 263.359 584.13 262.27C586.071 261.181 587.042 259.287 587.042 256.588V256.02C587.042 249.012 585.124 243.567 581.289 239.685C577.501 235.802 571.748 233.861 564.03 233.861C556.028 233.861 549.755 235.613 545.209 239.117C540.664 242.62 537.468 246.361 535.621 250.338L519.712 244.656C522.553 238.028 526.341 232.867 531.076 229.173C535.858 225.433 541.066 222.829 546.701 221.361C552.383 219.846 557.97 219.088 563.462 219.088C566.966 219.088 570.991 219.514 575.536 220.367C580.129 221.172 584.556 222.852 588.817 225.409C593.126 227.966 596.701 231.825 599.542 236.986C602.383 242.147 603.803 249.06 603.803 257.725V329.6H587.042V314.827H586.189C585.053 317.194 583.159 319.727 580.508 322.426C577.856 325.125 574.329 327.422 569.925 329.316C565.522 331.209 560.148 332.156 553.803 332.156ZM556.36 317.1C562.989 317.1 568.576 315.798 573.121 313.193C577.714 310.589 581.17 307.227 583.491 303.108C585.858 298.989 587.042 294.656 587.042 290.111V274.77C586.331 275.622 584.769 276.404 582.354 277.114C579.987 277.777 577.241 278.369 574.116 278.889C571.038 279.363 568.031 279.789 565.096 280.168C562.207 280.499 559.864 280.783 558.064 281.02C553.708 281.588 549.636 282.512 545.849 283.79C542.108 285.021 539.078 286.891 536.758 289.401C534.485 291.863 533.349 295.225 533.349 299.486C533.349 305.31 535.503 309.713 539.812 312.696C544.168 315.632 549.684 317.1 556.36 317.1ZM719.694 220.509L679.353 329.6H662.308L621.967 220.509H640.149L670.263 307.441H671.399L701.513 220.509H719.694ZM770.6 332.156C763.687 332.156 757.413 330.854 751.779 328.25C746.144 325.599 741.67 321.787 738.356 316.816C735.041 311.797 733.384 305.736 733.384 298.634C733.384 292.384 734.615 287.317 737.077 283.435C739.539 279.505 742.83 276.427 746.949 274.202C751.069 271.976 755.614 270.319 760.586 269.23C765.605 268.094 770.647 267.194 775.714 266.531C782.342 265.679 787.716 265.04 791.836 264.614C796.002 264.14 799.033 263.359 800.927 262.27C802.868 261.181 803.839 259.287 803.839 256.588V256.02C803.839 249.012 801.921 243.567 798.086 239.685C794.298 235.802 788.545 233.861 780.827 233.861C772.825 233.861 766.552 235.613 762.006 239.117C757.461 242.62 754.265 246.361 752.418 250.338L736.509 244.656C739.35 238.028 743.138 232.867 747.873 229.173C752.655 225.433 757.863 222.829 763.498 221.361C769.179 219.846 774.767 219.088 780.259 219.088C783.763 219.088 787.787 219.514 792.333 220.367C796.926 221.172 801.353 222.852 805.614 225.409C809.923 227.966 813.498 231.825 816.339 236.986C819.179 242.147 820.6 249.06 820.6 257.725V329.6H803.839V314.827H802.986C801.85 317.194 799.956 319.727 797.304 322.426C794.653 325.125 791.125 327.422 786.722 329.316C782.319 331.209 776.945 332.156 770.6 332.156ZM773.157 317.1C779.786 317.1 785.373 315.798 789.918 313.193C794.511 310.589 797.967 307.227 800.287 303.108C802.655 298.989 803.839 294.656 803.839 290.111V274.77C803.128 275.622 801.566 276.404 799.151 277.114C796.784 277.777 794.037 278.369 790.912 278.889C787.835 279.363 784.828 279.789 781.893 280.168C779.004 280.499 776.661 280.783 774.861 281.02C770.505 281.588 766.433 282.512 762.645 283.79C758.905 285.021 755.875 286.891 753.554 289.401C751.282 291.863 750.145 295.225 750.145 299.486C750.145 305.31 752.3 309.713 756.608 312.696C760.965 315.632 766.481 317.1 773.157 317.1ZM933.011 220.509C932.159 213.312 928.702 207.725 922.642 203.747C916.581 199.77 909.148 197.781 900.341 197.781C893.901 197.781 888.267 198.823 883.437 200.906C878.655 202.99 874.915 205.854 872.216 209.5C869.564 213.146 868.238 217.289 868.238 221.929C868.238 225.812 869.162 229.15 871.008 231.943C872.902 234.69 875.317 236.986 878.253 238.833C881.188 240.632 884.266 242.123 887.486 243.307C890.705 244.443 893.665 245.367 896.363 246.077L911.136 250.054C914.924 251.048 919.138 252.422 923.778 254.173C928.466 255.925 932.94 258.316 937.201 261.347C941.51 264.33 945.061 268.165 947.855 272.852C950.648 277.54 952.045 283.293 952.045 290.111C952.045 297.971 949.986 305.073 945.866 311.418C941.794 317.762 935.828 322.805 927.969 326.546C920.156 330.286 910.663 332.156 899.488 332.156C889.072 332.156 880.052 330.476 872.429 327.114C864.853 323.752 858.887 319.065 854.531 313.051C850.222 307.038 847.784 300.054 847.216 292.1H865.398C865.871 297.592 867.718 302.137 870.937 305.736C874.204 309.287 878.324 311.939 883.295 313.691C888.314 315.395 893.712 316.247 899.488 316.247C906.212 316.247 912.249 315.158 917.599 312.98C922.95 310.755 927.187 307.677 930.312 303.747C933.437 299.77 935 295.13 935 289.827C935 284.997 933.65 281.067 930.951 278.037C928.253 275.007 924.701 272.545 920.298 270.651C915.895 268.757 911.136 267.1 906.023 265.679L888.125 260.566C876.761 257.298 867.765 252.635 861.136 246.574C854.507 240.513 851.193 232.583 851.193 222.781C851.193 214.637 853.395 207.535 857.798 201.475C862.249 195.367 868.215 190.632 875.696 187.27C883.224 183.861 891.629 182.156 900.909 182.156C910.284 182.156 918.617 183.837 925.909 187.199C933.201 190.513 938.977 195.059 943.238 200.835C947.547 206.612 949.82 213.17 950.057 220.509H933.011ZM1023.05 331.872C1012.82 331.872 1004.02 329.458 996.63 324.628C989.243 319.798 983.562 313.146 979.584 304.671C975.607 296.195 973.618 286.512 973.618 275.622C973.618 264.543 975.654 254.765 979.726 246.29C983.846 237.767 989.575 231.115 996.914 226.333C1004.3 221.503 1012.92 219.088 1022.77 219.088C1030.44 219.088 1037.35 220.509 1043.5 223.35C1049.66 226.191 1054.7 230.168 1058.63 235.281C1062.56 240.395 1065 246.361 1065.95 253.179H1049.19C1047.91 248.208 1045.07 243.804 1040.66 239.969C1036.31 236.086 1030.44 234.145 1023.05 234.145C1016.52 234.145 1010.79 235.85 1005.86 239.259C1000.99 242.62 997.174 247.379 994.428 253.534C991.729 259.642 990.38 266.816 990.38 275.054C990.38 283.482 991.706 290.821 994.357 297.071C997.056 303.321 1000.84 308.174 1005.72 311.631C1010.64 315.087 1016.42 316.816 1023.05 316.816C1027.41 316.816 1031.36 316.058 1034.91 314.543C1038.46 313.028 1041.47 310.85 1043.93 308.009C1046.39 305.168 1048.14 301.759 1049.19 297.781H1065.95C1065 304.221 1062.66 310.021 1058.92 315.182C1055.22 320.296 1050.32 324.368 1044.21 327.398C1038.15 330.381 1031.1 331.872 1023.05 331.872ZM1090.45 329.6V220.509H1106.64V236.986H1107.78C1109.77 231.588 1113.37 227.209 1118.58 223.847C1123.78 220.485 1129.66 218.804 1136.19 218.804C1137.42 218.804 1138.96 218.828 1140.81 218.875C1142.65 218.923 1144.05 218.994 1145 219.088V236.134C1144.43 235.992 1143.13 235.779 1141.09 235.494C1139.1 235.163 1136.99 234.997 1134.77 234.997C1129.47 234.997 1124.73 236.11 1120.56 238.335C1116.45 240.513 1113.18 243.544 1110.76 247.426C1108.4 251.262 1107.21 255.641 1107.21 260.566V329.6H1090.45ZM1164.86 329.6V220.509H1181.63V329.6H1164.86ZM1173.39 202.327C1170.12 202.327 1167.3 201.214 1164.94 198.989C1162.62 196.763 1161.46 194.088 1161.46 190.963C1161.46 187.838 1162.62 185.163 1164.94 182.938C1167.3 180.712 1170.12 179.6 1173.39 179.6C1176.65 179.6 1179.45 180.712 1181.77 182.938C1184.14 185.163 1185.32 187.838 1185.32 190.963C1185.32 194.088 1184.14 196.763 1181.77 198.989C1179.45 201.214 1176.65 202.327 1173.39 202.327ZM1212.33 370.509V220.509H1228.52V237.838H1230.51C1231.74 235.944 1233.44 233.53 1235.62 230.594C1237.85 227.611 1241.02 224.959 1245.14 222.639C1249.3 220.272 1254.94 219.088 1262.04 219.088C1271.23 219.088 1279.32 221.385 1286.33 225.977C1293.34 230.57 1298.81 237.081 1302.74 245.509C1306.67 253.937 1308.63 263.88 1308.63 275.338C1308.63 286.891 1306.67 296.905 1302.74 305.381C1298.81 313.809 1293.36 320.343 1286.4 324.983C1279.44 329.576 1271.42 331.872 1262.33 331.872C1255.32 331.872 1249.71 330.712 1245.49 328.392C1241.28 326.025 1238.04 323.35 1235.76 320.367C1233.49 317.336 1231.74 314.827 1230.51 312.838H1229.09V370.509H1212.33ZM1228.8 275.054C1228.8 283.293 1230.01 290.561 1232.43 296.858C1234.84 303.108 1238.37 308.009 1243.01 311.56C1247.65 315.064 1253.33 316.816 1260.05 316.816C1267.06 316.816 1272.91 314.969 1277.6 311.276C1282.33 307.535 1285.88 302.516 1288.25 296.219C1290.66 289.874 1291.87 282.819 1291.87 275.054C1291.87 267.384 1290.69 260.471 1288.32 254.316C1286 248.113 1282.47 243.212 1277.74 239.614C1273.05 235.968 1267.16 234.145 1260.05 234.145C1253.23 234.145 1247.51 235.873 1242.87 239.33C1238.23 242.739 1234.72 247.521 1232.35 253.676C1229.99 259.784 1228.8 266.91 1228.8 275.054ZM1381.64 220.509V234.713H1325.11V220.509H1381.64ZM1341.59 194.372H1358.35V298.35C1358.35 303.084 1359.04 306.636 1360.41 309.003C1361.83 311.323 1363.63 312.886 1365.81 313.691C1368.03 314.448 1370.38 314.827 1372.84 314.827C1374.68 314.827 1376.2 314.732 1377.38 314.543C1378.57 314.306 1379.51 314.117 1380.22 313.975L1383.63 329.031C1382.5 329.458 1380.91 329.884 1378.87 330.31C1376.84 330.783 1374.26 331.02 1371.13 331.02C1366.4 331.02 1361.76 330.002 1357.21 327.966C1352.71 325.93 1348.97 322.829 1345.99 318.662C1343.05 314.495 1341.59 309.24 1341.59 302.895V194.372Z" fill="white"/>
</svg>
